<?xml version="1.0" encoding="UTF-8" standalone="no"?>
<!-- Created with Inkscape (http://www.inkscape.org/) -->

<svg
   xmlns:dc="http://purl.org/dc/elements/1.1/"
   xmlns:cc="http://creativecommons.org/ns#"
   xmlns:rdf="http://www.w3.org/1999/02/22-rdf-syntax-ns#"
   xmlns:svg="http://www.w3.org/2000/svg"
   xmlns="http://www.w3.org/2000/svg"
   xmlns:sodipodi="http://sodipodi.sourceforge.net/DTD/sodipodi-0.dtd"
   xmlns:inkscape="http://www.inkscape.org/namespaces/inkscape"
   width="16px"
   height="16px"
   id="svg2826"
   version="1.1"
   inkscape:version="0.47 r22583"
   sodipodi:docname="favicon.svg"
   inkscape:export-filename="C:\Documents and Settings\Dave Bridges\My Documents\Source\mousedb\media\favicon.ico.png"
   inkscape:export-xdpi="90"
   inkscape:export-ydpi="90">
  <defs
     id="defs2828">
    <inkscape:perspective
       sodipodi:type="inkscape:persp3d"
       inkscape:vp_x="0 : 8 : 1"
       inkscape:vp_y="0 : 1000 : 0"
       inkscape:vp_z="16 : 8 : 1"
       inkscape:persp3d-origin="8 : 5.3333333 : 1"
       id="perspective2834" />
    <inkscape:perspective
       id="perspective3626"
       inkscape:persp3d-origin="0.5 : 0.33333333 : 1"
       inkscape:vp_z="1 : 0.5 : 1"
       inkscape:vp_y="0 : 1000 : 0"
       inkscape:vp_x="0 : 0.5 : 1"
       sodipodi:type="inkscape:persp3d" />
    <inkscape:perspective
       id="perspective3650"
       inkscape:persp3d-origin="0.5 : 0.33333333 : 1"
       inkscape:vp_z="1 : 0.5 : 1"
       inkscape:vp_y="0 : 1000 : 0"
       inkscape:vp_x="0 : 0.5 : 1"
       sodipodi:type="inkscape:persp3d" />
    <inkscape:perspective
       id="perspective3676"
       inkscape:persp3d-origin="0.5 : 0.33333333 : 1"
       inkscape:vp_z="1 : 0.5 : 1"
       inkscape:vp_y="0 : 1000 : 0"
       inkscape:vp_x="0 : 0.5 : 1"
       sodipodi:type="inkscape:persp3d" />
    <inkscape:perspective
       id="perspective3676-0"
       inkscape:persp3d-origin="0.5 : 0.33333333 : 1"
       inkscape:vp_z="1 : 0.5 : 1"
       inkscape:vp_y="0 : 1000 : 0"
       inkscape:vp_x="0 : 0.5 : 1"
       sodipodi:type="inkscape:persp3d" />
    <inkscape:perspective
       id="perspective3709"
       inkscape:persp3d-origin="0.5 : 0.33333333 : 1"
       inkscape:vp_z="1 : 0.5 : 1"
       inkscape:vp_y="0 : 1000 : 0"
       inkscape:vp_x="0 : 0.5 : 1"
       sodipodi:type="inkscape:persp3d" />
  </defs>
  <sodipodi:namedview
     id="base"
     pagecolor="#ffffff"
     bordercolor="#666666"
     borderopacity="1.0"
     inkscape:pageopacity="0.0"
     inkscape:pageshadow="2"
     inkscape:zoom="22.197802"
     inkscape:cx="1.3777227"
     inkscape:cy="8"
     inkscape:current-layer="layer1"
     showgrid="true"
     inkscape:grid-bbox="true"
     inkscape:document-units="px"
     inkscape:window-width="1024"
     inkscape:window-height="712"
     inkscape:window-x="-4"
     inkscape:window-y="-4"
     inkscape:window-maximized="1" />
  <metadata
     id="metadata2831">
    <rdf:RDF>
      <cc:Work
         rdf:about="">
        <dc:format>image/svg+xml</dc:format>
        <dc:type
           rdf:resource="http://purl.org/dc/dcmitype/StillImage" />
        <dc:title></dc:title>
      </cc:Work>
    </rdf:RDF>
  </metadata>
  <g
     id="layer1"
     inkscape:label="Layer 1"
     inkscape:groupmode="layer">
    <path
       sodipodi:type="arc"
       style="fill:#fefbfc;fill-opacity:1;stroke:#000000;stroke-opacity:1"
       id="path3614-1"
       sodipodi:cx="8.9423265"
       sodipodi:cy="3.0933168"
       sodipodi:rx="1.8695545"
       sodipodi:ry="1.4641089"
       d="m 10.811881,3.0933168 a 1.8695545,1.4641089 0 1 1 -3.739109,0 1.8695545,1.4641089 0 1 1 3.739109,0 z"
       transform="matrix(0.68428941,0,0,0.90455422,0.36798933,-0.58322138)" />
    <path
       style="fill:none;stroke:#000000;stroke-width:1px;stroke-linecap:butt;stroke-linejoin:miter;stroke-opacity:1"
       d="m 11.442575,9.7381189 c 0,0 3.47234,1.5939041 3.243565,3.0633671 -0.197342,1.267564 -3.468813,1.666831 -3.468813,1.666831"
       id="path2838"
       sodipodi:nodetypes="csc" />
    <path
       style="fill:#000000;stroke:#000000;stroke-width:1px;stroke-linecap:butt;stroke-linejoin:miter;stroke-opacity:1;fill-opacity:1"
       d="M 7.7034654,13.612377 9.9108912,11.089604 10.94703,11.314852 C 11.839721,11.508916 12.377312,9.7131881 12.118317,8.8371286 11.908023,8.1258023 10.226238,7.6658415 10.226238,7.6658415 L 8.289109,4.7826732 c 0,0 -0.3370459,-0.3792571 -0.7658416,-0.7207921 C 7.2582315,3.8507804 6.2618812,3.2059406 6.2618812,3.2059406 4.8088392,4.1368433 6.0807688,3.5456736 5.0177715,4.1033494 4.3508568,4.45323 2.5383205,5.5833632 1.8019802,6.3594058 1.3384212,6.8479591 3.3617027,6.4343267 4.5572028,5.9810608 5.4989704,5.623996 6.7123762,7.1252475 6.7123762,7.1252475 L 5.090594,8.7470296 c 0,0 1.2033811,-1.1716668 1.8920793,-0.991089 C 7.6232786,7.9239084 7.9607924,9.2999643 8.0638614,9.4227722 8.3815937,9.801354 7.7413802,12.426819 7.0277228,10.999504 l 0.3153465,0.495547 1.1712873,-0.991091 -0.3603962,-0.315346 -0.1351485,0.630693 1.0811882,0.405446 -1.3965347,2.387624 z"
       id="path3612"
       sodipodi:nodetypes="ccssccsssssccasccccccc" />
    <path
       sodipodi:type="arc"
       style="fill:#fefbfc;fill-opacity:1;stroke:#000000;stroke-opacity:1"
       id="path3614"
       sodipodi:cx="8.9423265"
       sodipodi:cy="3.0933168"
       sodipodi:rx="1.8695545"
       sodipodi:ry="1.4641089"
       d="m 10.811881,3.0933168 a 1.8695545,1.4641089 0 1 1 -3.739109,0 1.8695545,1.4641089 0 1 1 3.739109,0 z"
       transform="matrix(1.0286775,0,0,1.2212344,-0.7519883,-0.2338529)" />
    <path
       sodipodi:type="arc"
       style="fill:#fefbfc;fill-opacity:1;stroke:none"
       id="path3640"
       sodipodi:cx="-4.1670794"
       sodipodi:cy="3.4311881"
       sodipodi:rx="0.24777228"
       sodipodi:ry="0.40544555"
       d="m -3.9193072,3.4311881 a 0.24777228,0.40544555 0 1 1 -0.4955445,0 0.24777228,0.40544555 0 1 1 0.4955445,0 z"
       transform="matrix(2.0258397,0,0,0.9046798,13.217083,1.4532992)" />
    <path
       sodipodi:type="arc"
       style="fill:#000000;fill-opacity:1;stroke:none"
       id="path3664"
       sodipodi:cx="6.5997524"
       sodipodi:cy="12.238366"
       sodipodi:rx="0.74331683"
       sodipodi:ry="0.74331683"
       d="m 7.3430693,12.238366 a 0.74331683,0.74331683 0 1 1 -1.4866337,0 0.74331683,0.74331683 0 1 1 1.4866337,0 z"
       transform="matrix(1.4470267,0,0,0.70625969,-2.9926052,3.1513119)" />
    <path
       sodipodi:type="arc"
       style="fill:#000000;fill-opacity:1;stroke:none"
       id="path3664-4"
       sodipodi:cx="6.5997524"
       sodipodi:cy="12.238366"
       sodipodi:rx="0.74331683"
       sodipodi:ry="0.74331683"
       d="m 7.3430693,12.238366 a 0.74331683,0.74331683 0 1 1 -1.4866337,0 0.74331683,0.74331683 0 1 1 1.4866337,0 z"
       transform="matrix(1.4470267,0,0,0.70625969,-2.2689343,5.0521052)" />
    <path
       sodipodi:type="arc"
       style="fill:#000000;fill-opacity:1;stroke:none"
       id="path3664-9"
       sodipodi:cx="6.5997524"
       sodipodi:cy="12.238366"
       sodipodi:rx="0.74331683"
       sodipodi:ry="0.74331683"
       d="m 7.3430693,12.238366 a 0.74331683,0.74331683 0 1 1 -1.4866337,0 0.74331683,0.74331683 0 1 1 1.4866337,0 z"
       transform="matrix(1.4470267,0,0,0.70625969,-5.0281318,0.2456189)" />
    <path
       style="fill:none;stroke:#000000;stroke-width:1px;stroke-linecap:butt;stroke-linejoin:miter;stroke-opacity:1"
       d="M 7.7034654,8.4316831 5.9465347,9.4678217"
       id="path3699" />
    <path
       sodipodi:type="arc"
       style="fill:#000000;fill-opacity:1;stroke:none"
       id="path3664-9-4"
       sodipodi:cx="6.5997524"
       sodipodi:cy="12.238366"
       sodipodi:rx="0.74331683"
       sodipodi:ry="0.74331683"
       d="m 7.3430693,12.238366 a 0.74331683,0.74331683 0 1 1 -1.4866337,0 0.74331683,0.74331683 0 1 1 1.4866337,0 z"
       transform="matrix(1.4470267,0,0,0.70625969,-3.1529882,0.82435706)" />
  </g>
</svg>
